<svg xmlns="http://www.w3.org/2000/svg" viewBox="0 0 512 512">
  <rect width="512" height="512" rx="80" fill="#0d0d0d"/>
  <circle cx="256" cy="256" r="200" fill="#1a1a1a"/>
  <!-- Anvil -->
  <rect x="152" y="300" width="208" height="40" rx="8" fill="#2e2e2e"/>
  <rect x="180" y="272" width="60" height="34" fill="#2e2e2e"/>
  <rect x="272" y="272" width="60" height="34" fill="#2e2e2e"/>
  <rect x="160" y="238" width="192" height="40" rx="6" fill="#3a3a3a"/>
  <polygon points="160,245 108,258 116,272 160,268" fill="#2e2e2e"/>
  <!-- Hammer head -->
  <rect x="230" y="148" width="120" height="60" rx="10" fill="#333" transform="rotate(-20,290,178)"/>
  <!-- Handle -->
  <rect x="290" y="190" width="20" height="110" rx="6" fill="#6b4826" transform="rotate(-20,300,245)"/>
  <!-- Sparks -->
  <circle cx="248" cy="232" r="6" fill="#ebbd34"/>
  <circle cx="272" cy="218" r="4" fill="#f5cb4a"/>
  <circle cx="228" cy="222" r="4" fill="#ebbd34"/>
  <line x1="255" y1="235" x2="228" y2="200" stroke="#ebbd34" stroke-width="3" stroke-linecap="round"/>
  <line x1="255" y1="235" x2="282" y2="198" stroke="#f5cb4a" stroke-width="2" stroke-linecap="round"/>
  <line x1="255" y1="235" x2="210" y2="218" stroke="#ebbd34" stroke-width="2" stroke-linecap="round"/>
</svg>
